{
  "version": "1.1.6",
  "modules": [
    {
      "id": 1,
      "plugin": "Core",
      "version": "1.1.6",
      "model": "AudioInterface",
      "params": [],
      "data": {
        "audio": {
          "driver": 6,
          "deviceName": "Headphones (boAt Rockerz 400 Stereo)",
          "offset": 0,
          "maxChannels": 8,
          "sampleRate": 44100,
          "blockSize": 64
        }
      },
      "pos": [
        95,
        0
      ]
    },
    {
      "id": 3,
      "plugin": "Fundamental",
      "version": "1.4.0",
      "model": "VCO",
      "params": [
        {
          "id": 0,
          "value": 1.0
        },
        {
          "id": 1,
          "value": 1.0
        },
        {
          "id": 2,
          "value": -26.9999828
        },
        {
          "id": 3,
          "value": 0.0
        },
        {
          "id": 4,
          "value": 0.191499963
        },
        {
          "id": 5,
          "value": 0.201099992
        },
        {
          "id": 6,
          "value": 0.424500018
        }
      ],
      "pos": [
        26,
        0
      ]
    },
    {
      "id": 6,
      "plugin": "Fundamental",
      "version": "1.4.0",
      "model": "ADSR",
      "params": [
        {
          "id": 0,
          "value": 0.5
        },
        {
          "id": 1,
          "value": 0.5
        },
        {
          "id": 2,
          "value": 0.5
        },
        {
          "id": 3,
          "value": 0.49849996
        }
      ],
      "leftModuleId": 38,
      "rightModuleId": 37,
      "pos": [
        55,
        0
      ]
    },
    {
      "id": 37,
      "plugin": "Fundamental",
      "version": "1.4.0",
      "model": "VCA-1",
      "params": [
        {
          "id": 0,
          "value": 1.0
        },
        {
          "id": 1,
          "value": 1.0
        }
      ],
      "leftModuleId": 6,
      "pos": [
        63,
        0
      ]
    },
    {
      "id": 38,
      "plugin": "Fundamental",
      "version": "1.4.0",
      "model": "VCF",
      "params": [
        {
          "id": 0,
          "value": 0.59344244
        },
        {
          "id": 1,
          "value": 0.49999994
        },
        {
          "id": 2,
          "value": 0.243999943
        },
        {
          "id": 3,
          "value": 0.642999828
        },
        {
          "id": 4,
          "value": 0.261999995
        }
      ],
      "rightModuleId": 6,
      "pos": [
        47,
        0
      ]
    },
    {
      "id": 40,
      "plugin": "AudibleInstruments",
      "version": "1.5.0",
      "model": "Tides",
      "params": [
        {
          "id": 0,
          "value": 0.0
        },
        {
          "id": 1,
          "value": 0.0
        },
        {
          "id": 2,
          "value": 32.0160103
        },
        {
          "id": 3,
          "value": 3.03600025
        },
        {
          "id": 4,
          "value": 0.605000079
        },
        {
          "id": 5,
          "value": -0.636999965
        },
        {
          "id": 6,
          "value": 0.0470000133
        }
      ],
      "data": {
        "mode": 1,
        "range": 2,
        "sheep": false
      },
      "pos": [
        29,
        1
      ]
    },
    {
      "id": 41,
      "plugin": "Fundamental",
      "version": "1.4.0",
      "model": "LFO",
      "params": [
        {
          "id": 0,
          "value": 0.0
        },
        {
          "id": 1,
          "value": 1.0
        },
        {
          "id": 2,
          "value": 0.771062136
        },
        {
          "id": 3,
          "value": 0.555999935
        },
        {
          "id": 4,
          "value": 0.708000243
        },
        {
          "id": 5,
          "value": 0.570070028
        },
        {
          "id": 6,
          "value": 0.523499846
        }
      ],
      "pos": [
        46,
        1
      ]
    },
    {
      "id": 44,
      "plugin": "Bogaudio",
      "version": "1.1.37",
      "model": "Bogaudio-Arp",
      "params": [
        {
          "id": 0,
          "value": 0.0
        },
        {
          "id": 1,
          "value": 0.5
        },
        {
          "id": 2,
          "value": 0.0
        }
      ],
      "bypass": true,
      "leftModuleId": 94,
      "data": {
        "notes_immediate": false,
        "fixed_gate": false
      },
      "pos": [
        22,
        1
      ]
    },
    {
      "id": 45,
      "plugin": "Core",
      "version": "1.1.6",
      "model": "MIDIToCVInterface",
      "params": [],
      "data": {
        "channels": 1,
        "polyMode": 0,
        "clockDivision": 24,
        "lastPitch": 8192,
        "lastMod": 0,
        "midi": {
          "driver": -11,
          "deviceName": "QWERTY keyboard (US)",
          "channel": -1
        }
      },
      "pos": [
        14,
        0
      ]
    },
    {
      "id": 94,
      "plugin": "Fundamental",
      "version": "1.4.0",
      "model": "SEQ3",
      "params": [
        {
          "id": 0,
          "value": 2.22239232
        },
        {
          "id": 1,
          "value": 0.0
        },
        {
          "id": 2,
          "value": 0.0
        },
        {
          "id": 3,
          "value": 8.0
        },
        {
          "id": 4,
          "value": 10.0
        },
        {
          "id": 5,
          "value": 0.0
        },
        {
          "id": 6,
          "value": 0.0
        },
        {
          "id": 7,
          "value": 10.0
        },
        {
          "id": 8,
          "value": 10.0
        },
        {
          "id": 9,
          "value": 0.0
        },
        {
          "id": 10,
          "value": 0.0
        },
        {
          "id": 11,
          "value": 0.0300000012
        },
        {
          "id": 12,
          "value": 0.0
        },
        {
          "id": 13,
          "value": 0.0
        },
        {
          "id": 14,
          "value": 0.0
        },
        {
          "id": 15,
          "value": 0.0
        },
        {
          "id": 16,
          "value": 0.0
        },
        {
          "id": 17,
          "value": 0.0
        },
        {
          "id": 18,
          "value": 0.0
        },
        {
          "id": 19,
          "value": 0.0
        },
        {
          "id": 20,
          "value": 0.0
        },
        {
          "id": 21,
          "value": 0.0
        },
        {
          "id": 22,
          "value": 0.0
        },
        {
          "id": 23,
          "value": 0.0
        },
        {
          "id": 24,
          "value": 0.0
        },
        {
          "id": 25,
          "value": 0.0
        },
        {
          "id": 26,
          "value": 0.0
        },
        {
          "id": 27,
          "value": 0.0
        },
        {
          "id": 28,
          "value": 0.0
        },
        {
          "id": 29,
          "value": 0.0
        },
        {
          "id": 30,
          "value": 0.0
        },
        {
          "id": 31,
          "value": 0.0
        },
        {
          "id": 32,
          "value": 0.0
        },
        {
          "id": 33,
          "value": 0.0
        },
        {
          "id": 34,
          "value": 0.0
        },
        {
          "id": 35,
          "value": 0.0
        }
      ],
      "rightModuleId": 44,
      "data": {
        "running": true,
        "gates": [
          1,
          1,
          0,
          1,
          1,
          0,
          1,
          0
        ]
      },
      "pos": [
        0,
        1
      ]
    },
    {
      "id": 96,
      "plugin": "Fundamental",
      "version": "1.4.0",
      "model": "ADSR",
      "params": [
        {
          "id": 0,
          "value": 0.15350011
        },
        {
          "id": 1,
          "value": 0.5
        },
        {
          "id": 2,
          "value": 0.495500118
        },
        {
          "id": 3,
          "value": 0.618499815
        }
      ],
      "pos": [
        74,
        1
      ]
    },
    {
      "id": 97,
      "plugin": "Fundamental",
      "version": "1.4.0",
      "model": "VCA-1",
      "params": [
        {
          "id": 0,
          "value": 0.911499977
        },
        {
          "id": 1,
          "value": 1.0
        }
      ],
      "pos": [
        68,
        1
      ]
    },
    {
      "id": 98,
      "plugin": "Fundamental",
      "version": "1.4.0",
      "model": "VCA-1",
      "params": [
        {
          "id": 0,
          "value": 0.986500025
        },
        {
          "id": 1,
          "value": 1.0
        }
      ],
      "pos": [
        59,
        1
      ]
    },
    {
      "id": 99,
      "plugin": "HetrickCV",
      "version": "1.0.0",
      "model": "LogicCombine",
      "params": [],
      "pos": [
        42,
        2
      ]
    },
    {
      "id": 102,
      "plugin": "Fundamental",
      "version": "1.4.0",
      "model": "VCMixer",
      "params": [
        {
          "id": 0,
          "value": 0.433999836
        },
        {
          "id": 1,
          "value": 1.00848508
        },
        {
          "id": 2,
          "value": 0.455376804
        },
        {
          "id": 3,
          "value": 1.0
        },
        {
          "id": 4,
          "value": 1.0
        }
      ],
      "pos": [
        70,
        0
      ]
    }
  ],
  "cables": [
    {
      "id": 353,
      "outputModuleId": 94,
      "outputId": 0,
      "inputModuleId": 6,
      "inputId": 4,
      "color": "#0986ad"
    },
    {
      "id": 210,
      "outputModuleId": 38,
      "outputId": 0,
      "inputModuleId": 37,
      "inputId": 1,
      "color": "#0c8e15"
    },
    {
      "id": 358,
      "outputModuleId": 96,
      "outputId": 0,
      "inputModuleId": 97,
      "inputId": 0,
      "color": "#c9b70e"
    },
    {
      "id": 254,
      "outputModuleId": 45,
      "outputId": 0,
      "inputModuleId": 3,
      "inputId": 0,
      "color": "#0c8e15"
    },
    {
      "id": 365,
      "outputModuleId": 41,
      "outputId": 0,
      "inputModuleId": 98,
      "inputId": 1,
      "color": "#0c8e15"
    },
    {
      "id": 209,
      "outputModuleId": 3,
      "outputId": 2,
      "inputModuleId": 38,
      "inputId": 3,
      "color": "#c9b70e"
    },
    {
      "id": 378,
      "outputModuleId": 98,
      "outputId": 0,
      "inputModuleId": 3,
      "inputId": 1,
      "color": "#c91847"
    },
    {
      "id": 380,
      "outputModuleId": 96,
      "outputId": 0,
      "inputModuleId": 98,
      "inputId": 0,
      "color": "#c9b70e"
    },
    {
      "id": 385,
      "outputModuleId": 97,
      "outputId": 0,
      "inputModuleId": 38,
      "inputId": 0,
      "color": "#0c8e15"
    },
    {
      "id": 388,
      "outputModuleId": 99,
      "outputId": 0,
      "inputModuleId": 96,
      "inputId": 4,
      "color": "#0c8e15"
    },
    {
      "id": 349,
      "outputModuleId": 41,
      "outputId": 2,
      "inputModuleId": 97,
      "inputId": 1,
      "color": "#c91847"
    },
    {
      "id": 396,
      "outputModuleId": 99,
      "outputId": 0,
      "inputModuleId": 41,
      "inputId": 2,
      "color": "#0986ad"
    },
    {
      "id": 387,
      "outputModuleId": 94,
      "outputId": 8,
      "inputModuleId": 99,
      "inputId": 1,
      "color": "#c9b70e"
    },
    {
      "id": 386,
      "outputModuleId": 94,
      "outputId": 5,
      "inputModuleId": 99,
      "inputId": 0,
      "color": "#c91847"
    },
    {
      "id": 408,
      "outputModuleId": 94,
      "outputId": 1,
      "inputModuleId": 96,
      "inputId": 3,
      "color": "#c91847"
    },
    {
      "id": 416,
      "outputModuleId": 37,
      "outputId": 0,
      "inputModuleId": 102,
      "inputId": 1,
      "color": "#c91847"
    },
    {
      "id": 417,
      "outputModuleId": 102,
      "outputId": 0,
      "inputModuleId": 1,
      "inputId": 0,
      "color": "#c9b70e"
    },
    {
      "id": 418,
      "outputModuleId": 102,
      "outputId": 0,
      "inputModuleId": 1,
      "inputId": 1,
      "color": "#0c8e15"
    },
    {
      "id": 419,
      "outputModuleId": 37,
      "outputId": 0,
      "inputModuleId": 102,
      "inputId": 2,
      "color": "#c91847"
    },
    {
      "id": 355,
      "outputModuleId": 6,
      "outputId": 0,
      "inputModuleId": 102,
      "inputId": 5,
      "color": "#0c8e15"
    },
    {
      "id": 420,
      "outputModuleId": 6,
      "outputId": 0,
      "inputModuleId": 102,
      "inputId": 6,
      "color": "#0986ad"
    },
    {
      "id": 409,
      "outputModuleId": 40,
      "outputId": 2,
      "inputModuleId": 37,
      "inputId": 0,
      "color": "#0986ad"
    },
    {
      "id": 422,
      "outputModuleId": 94,
      "outputId": 1,
      "inputModuleId": 40,
      "inputId": 3,
      "color": "#0986ad"
    },
    {
      "id": 423,
      "outputModuleId": 99,
      "outputId": 0,
      "inputModuleId": 40,
      "inputId": 4,
      "color": "#c9b70e"
    }
  ]
}