{
  "version": "1.1.6",
  "modules": [
    {
      "id": 1,
      "plugin": "Core",
      "version": "1.1.6",
      "model": "AudioInterface",
      "params": [],
      "leftModuleId": 2,
      "data": {
        "audio": {
          "driver": 6,
          "deviceName": "Speakers (Realtek(R) Audio)",
          "offset": 0,
          "maxChannels": 8,
          "sampleRate": 44100,
          "blockSize": 64
        }
      },
      "pos": [
        55,
        1
      ]
    },
    {
      "id": 2,
      "plugin": "Fundamental",
      "version": "1.4.0",
      "model": "VCMixer",
      "params": [
        {
          "id": 0,
          "value": 1.0
        },
        {
          "id": 1,
          "value": 1.0
        },
        {
          "id": 2,
          "value": 1.0
        },
        {
          "id": 3,
          "value": 1.0
        },
        {
          "id": 4,
          "value": 1.0
        }
      ],
      "leftModuleId": 134,
      "rightModuleId": 1,
      "pos": [
        45,
        1
      ]
    },
    {
      "id": 5,
      "plugin": "Core",
      "version": "1.1.6",
      "model": "MIDIToCVInterface",
      "params": [],
      "data": {
        "channels": 1,
        "polyMode": 0,
        "clockDivision": 24,
        "lastPitch": 8192,
        "lastMod": 0,
        "midi": {
          "driver": 4,
          "deviceName": "MIDI function 0",
          "channel": -1
        }
      },
      "pos": [
        0,
        0
      ]
    },
    {
      "id": 6,
      "plugin": "Fundamental",
      "version": "1.4.0",
      "model": "ADSR",
      "params": [
        {
          "id": 0,
          "value": 0.5
        },
        {
          "id": 1,
          "value": 0.5
        },
        {
          "id": 2,
          "value": 0.5
        },
        {
          "id": 3,
          "value": 0.5
        }
      ],
      "pos": [
        17,
        1
      ]
    },
    {
      "id": 126,
      "plugin": "Fundamental",
      "version": "1.4.0",
      "model": "LFO",
      "params": [
        {
          "id": 0,
          "value": 0.0
        },
        {
          "id": 1,
          "value": 1.0
        },
        {
          "id": 2,
          "value": 9.64385605
        },
        {
          "id": 3,
          "value": 0.200499713
        },
        {
          "id": 4,
          "value": 1.0
        },
        {
          "id": 5,
          "value": 0.520089924
        },
        {
          "id": 6,
          "value": 0.0
        }
      ],
      "leftModuleId": 139,
      "pos": [
        49,
        0
      ]
    },
    {
      "id": 129,
      "plugin": "Fundamental",
      "version": "1.4.0",
      "model": "VCO",
      "params": [
        {
          "id": 0,
          "value": 1.0
        },
        {
          "id": 1,
          "value": 1.0
        },
        {
          "id": 2,
          "value": -25.4936123
        },
        {
          "id": 3,
          "value": 0.0
        },
        {
          "id": 4,
          "value": 1.0
        },
        {
          "id": 5,
          "value": 0.5
        },
        {
          "id": 6,
          "value": 0.0
        }
      ],
      "pos": [
        9,
        0
      ]
    },
    {
      "id": 134,
      "plugin": "Fundamental",
      "version": "1.4.0",
      "model": "Scope",
      "params": [
        {
          "id": 0,
          "value": -2.0
        },
        {
          "id": 1,
          "value": -0.449999869
        },
        {
          "id": 2,
          "value": 2.0
        },
        {
          "id": 3,
          "value": -0.0900000036
        },
        {
          "id": 4,
          "value": 15.2850008
        },
        {
          "id": 5,
          "value": 0.0
        },
        {
          "id": 6,
          "value": 0.350000739
        },
        {
          "id": 7,
          "value": 0.0
        }
      ],
      "rightModuleId": 2,
      "data": {
        "lissajous": 0,
        "external": 0
      },
      "pos": [
        32,
        1
      ]
    },
    {
      "id": 136,
      "plugin": "Fundamental",
      "version": "1.4.0",
      "model": "LFO",
      "params": [
        {
          "id": 0,
          "value": 0.0
        },
        {
          "id": 1,
          "value": 1.0
        },
        {
          "id": 2,
          "value": 9.37900162
        },
        {
          "id": 3,
          "value": 1.0
        },
        {
          "id": 4,
          "value": 0.353499919
        },
        {
          "id": 5,
          "value": 0.520089924
        },
        {
          "id": 6,
          "value": 0.0
        }
      ],
      "pos": [
        67,
        0
      ]
    },
    {
      "id": 138,
      "plugin": "Fundamental",
      "version": "1.4.0",
      "model": "LFO",
      "params": [
        {
          "id": 0,
          "value": 0.0
        },
        {
          "id": 1,
          "value": 1.0
        },
        {
          "id": 2,
          "value": 9.13599968
        },
        {
          "id": 3,
          "value": 0.828999937
        },
        {
          "id": 4,
          "value": 0.0
        },
        {
          "id": 5,
          "value": 0.520089924
        },
        {
          "id": 6,
          "value": 0.0
        }
      ],
      "pos": [
        81,
        0
      ]
    },
    {
      "id": 139,
      "plugin": "Fundamental",
      "version": "1.4.0",
      "model": "VCA-1",
      "params": [
        {
          "id": 0,
          "value": 0.342999995
        },
        {
          "id": 1,
          "value": 1.0
        }
      ],
      "rightModuleId": 126,
      "pos": [
        46,
        0
      ]
    }
  ],
  "cables": [
    {
      "id": 533,
      "outputModuleId": 2,
      "outputId": 0,
      "inputModuleId": 1,
      "inputId": 0,
      "color": "#0986ad"
    },
    {
      "id": 534,
      "outputModuleId": 2,
      "outputId": 0,
      "inputModuleId": 1,
      "inputId": 1,
      "color": "#c9b70e"
    },
    {
      "id": 536,
      "outputModuleId": 5,
      "outputId": 1,
      "inputModuleId": 6,
      "inputId": 4,
      "color": "#c9b70e"
    },
    {
      "id": 540,
      "outputModuleId": 5,
      "outputId": 6,
      "inputModuleId": 6,
      "inputId": 5,
      "color": "#c91847"
    },
    {
      "id": 537,
      "outputModuleId": 6,
      "outputId": 0,
      "inputModuleId": 2,
      "inputId": 5,
      "color": "#0c8e15"
    },
    {
      "id": 577,
      "outputModuleId": 5,
      "outputId": 1,
      "inputModuleId": 126,
      "inputId": 2,
      "color": "#c9b70e"
    },
    {
      "id": 575,
      "outputModuleId": 129,
      "outputId": 0,
      "inputModuleId": 134,
      "inputId": 0,
      "color": "#c91847"
    },
    {
      "id": 587,
      "outputModuleId": 5,
      "outputId": 1,
      "inputModuleId": 136,
      "inputId": 2,
      "color": "#0986ad"
    },
    {
      "id": 590,
      "outputModuleId": 139,
      "outputId": 0,
      "inputModuleId": 129,
      "inputId": 1,
      "color": "#c91847"
    },
    {
      "id": 584,
      "outputModuleId": 136,
      "outputId": 1,
      "inputModuleId": 126,
      "inputId": 0,
      "color": "#c9b70e"
    },
    {
      "id": 589,
      "outputModuleId": 126,
      "outputId": 1,
      "inputModuleId": 139,
      "inputId": 1,
      "color": "#0c8e15"
    },
    {
      "id": 593,
      "outputModuleId": 138,
      "outputId": 1,
      "inputModuleId": 136,
      "inputId": 1,
      "color": "#0c8e15"
    },
    {
      "id": 582,
      "outputModuleId": 129,
      "outputId": 0,
      "inputModuleId": 2,
      "inputId": 1,
      "color": "#0c8e15"
    },
    {
      "id": 595,
      "outputModuleId": 5,
      "outputId": 1,
      "inputModuleId": 138,
      "inputId": 2,
      "color": "#0986ad"
    },
    {
      "id": 560,
      "outputModuleId": 5,
      "outputId": 0,
      "inputModuleId": 129,
      "inputId": 0,
      "color": "#0986ad"
    }
  ]
}