{
  "version": "1.1.6",
  "modules": [
    {
      "id": 1,
      "plugin": "Core",
      "version": "1.1.6",
      "model": "AudioInterface",
      "params": [],
      "leftModuleId": 2,
      "data": {
        "audio": {
          "driver": 6,
          "deviceName": "Speakers (Realtek(R) Audio)",
          "offset": 0,
          "maxChannels": 8,
          "sampleRate": 44100,
          "blockSize": 64
        }
      },
      "pos": [
        86,
        0
      ]
    },
    {
      "id": 2,
      "plugin": "Fundamental",
      "version": "1.4.0",
      "model": "VCMixer",
      "params": [
        {
          "id": 0,
          "value": 1.0
        },
        {
          "id": 1,
          "value": 1.0
        },
        {
          "id": 2,
          "value": 1.0
        },
        {
          "id": 3,
          "value": 1.0
        },
        {
          "id": 4,
          "value": 1.0
        }
      ],
      "leftModuleId": 7,
      "rightModuleId": 1,
      "pos": [
        76,
        0
      ]
    },
    {
      "id": 3,
      "plugin": "Fundamental",
      "version": "1.4.0",
      "model": "VCO",
      "params": [
        {
          "id": 0,
          "value": 1.0
        },
        {
          "id": 1,
          "value": 1.0
        },
        {
          "id": 2,
          "value": -26.9999828
        },
        {
          "id": 3,
          "value": 0.0
        },
        {
          "id": 4,
          "value": 0.0
        },
        {
          "id": 5,
          "value": 0.5
        },
        {
          "id": 6,
          "value": 0.0
        }
      ],
      "rightModuleId": 160,
      "pos": [
        12,
        0
      ]
    },
    {
      "id": 5,
      "plugin": "Core",
      "version": "1.1.6",
      "model": "MIDIToCVInterface",
      "params": [],
      "data": {
        "channels": 1,
        "polyMode": 0,
        "clockDivision": 24,
        "lastPitch": 8192,
        "lastMod": 0,
        "midi": {
          "driver": -11,
          "deviceName": "QWERTY keyboard (US)",
          "channel": -1
        }
      },
      "pos": [
        0,
        0
      ]
    },
    {
      "id": 6,
      "plugin": "Fundamental",
      "version": "1.4.0",
      "model": "ADSR",
      "params": [
        {
          "id": 0,
          "value": 0.0
        },
        {
          "id": 1,
          "value": 0.196500197
        },
        {
          "id": 2,
          "value": 0.688499868
        },
        {
          "id": 3,
          "value": 0.436000228
        }
      ],
      "rightModuleId": 7,
      "pos": [
        55,
        0
      ]
    },
    {
      "id": 7,
      "plugin": "Fundamental",
      "version": "1.4.0",
      "model": "Scope",
      "params": [
        {
          "id": 0,
          "value": 0.0
        },
        {
          "id": 1,
          "value": 0.0
        },
        {
          "id": 2,
          "value": 0.0
        },
        {
          "id": 3,
          "value": 0.0
        },
        {
          "id": 4,
          "value": 14.0
        },
        {
          "id": 5,
          "value": 0.0
        },
        {
          "id": 6,
          "value": 0.0
        },
        {
          "id": 7,
          "value": 0.0
        }
      ],
      "leftModuleId": 6,
      "rightModuleId": 2,
      "data": {
        "lissajous": 0,
        "external": 0
      },
      "pos": [
        63,
        0
      ]
    },
    {
      "id": 160,
      "plugin": "Fundamental",
      "version": "1.4.0",
      "model": "VCO",
      "params": [
        {
          "id": 0,
          "value": 1.0
        },
        {
          "id": 1,
          "value": 1.0
        },
        {
          "id": 2,
          "value": -13.0140085
        },
        {
          "id": 3,
          "value": 0.0179999098
        },
        {
          "id": 4,
          "value": 0.0
        },
        {
          "id": 5,
          "value": 0.5
        },
        {
          "id": 6,
          "value": 0.0
        }
      ],
      "leftModuleId": 3,
      "pos": [
        22,
        0
      ]
    },
    {
      "id": 161,
      "plugin": "Bogaudio",
      "version": "1.1.37",
      "model": "Bogaudio-Arp",
      "params": [
        {
          "id": 0,
          "value": 5.0
        },
        {
          "id": 1,
          "value": 0.355500072
        },
        {
          "id": 2,
          "value": 1.0
        }
      ],
      "data": {
        "notes_immediate": true,
        "fixed_gate": false
      },
      "pos": [
        34,
        1
      ]
    },
    {
      "id": 162,
      "plugin": "JW-Modules",
      "version": "1.0.25",
      "model": "SimpleClock",
      "params": [
        {
          "id": 0,
          "value": 2.91599989
        },
        {
          "id": 1,
          "value": 0.0
        },
        {
          "id": 2,
          "value": -2.0
        },
        {
          "id": 3,
          "value": 0.0
        }
      ],
      "data": {
        "clockMult": 1,
        "running": true
      },
      "pos": [
        26,
        1
      ]
    },
    {
      "id": 163,
      "plugin": "squinkylabs-plug1",
      "version": "1.0.18",
      "model": "squinkylabs-filt",
      "params": [
        {
          "id": 0,
          "value": -1.84500003
        },
        {
          "id": 1,
          "value": -0.208999932
        },
        {
          "id": 2,
          "value": 0.828999877
        },
        {
          "id": 3,
          "value": -3.9950006
        },
        {
          "id": 4,
          "value": 0.0
        },
        {
          "id": 5,
          "value": 0.0
        },
        {
          "id": 6,
          "value": -5.0
        },
        {
          "id": 7,
          "value": 0.0
        },
        {
          "id": 8,
          "value": 0.0
        },
        {
          "id": 9,
          "value": -1.26499951
        },
        {
          "id": 10,
          "value": 0.0
        },
        {
          "id": 11,
          "value": 5.0
        },
        {
          "id": 12,
          "value": 0.0
        },
        {
          "id": 13,
          "value": 1.0
        },
        {
          "id": 14,
          "value": 0.5
        },
        {
          "id": 15,
          "value": 0.0
        }
      ],
      "pos": [
        39,
        0
      ]
    },
    {
      "id": 164,
      "plugin": "Fundamental",
      "version": "1.4.0",
      "model": "ADSR",
      "params": [
        {
          "id": 0,
          "value": 0.0375000015
        },
        {
          "id": 1,
          "value": 0.498000026
        },
        {
          "id": 2,
          "value": 0.493499964
        },
        {
          "id": 3,
          "value": 0.401999861
        }
      ],
      "pos": [
        71,
        1
      ]
    },
    {
      "id": 165,
      "plugin": "Fundamental",
      "version": "1.4.0",
      "model": "ADSR",
      "params": [
        {
          "id": 0,
          "value": 0.0
        },
        {
          "id": 1,
          "value": 0.445500106
        },
        {
          "id": 2,
          "value": 0.48450011
        },
        {
          "id": 3,
          "value": 0.701499581
        }
      ],
      "pos": [
        47,
        1
      ]
    }
  ],
  "cables": [
    {
      "id": 628,
      "outputModuleId": 5,
      "outputId": 0,
      "inputModuleId": 3,
      "inputId": 0,
      "color": "#c91847"
    },
    {
      "id": 630,
      "outputModuleId": 2,
      "outputId": 0,
      "inputModuleId": 1,
      "inputId": 0,
      "color": "#0986ad"
    },
    {
      "id": 631,
      "outputModuleId": 2,
      "outputId": 0,
      "inputModuleId": 1,
      "inputId": 1,
      "color": "#c9b70e"
    },
    {
      "id": 636,
      "outputModuleId": 2,
      "outputId": 1,
      "inputModuleId": 7,
      "inputId": 0,
      "color": "#c9b70e"
    },
    {
      "id": 642,
      "outputModuleId": 162,
      "outputId": 0,
      "inputModuleId": 161,
      "inputId": 0,
      "color": "#0986ad"
    },
    {
      "id": 645,
      "outputModuleId": 161,
      "outputId": 1,
      "inputModuleId": 6,
      "inputId": 4,
      "color": "#c91847"
    },
    {
      "id": 647,
      "outputModuleId": 5,
      "outputId": 1,
      "inputModuleId": 161,
      "inputId": 3,
      "color": "#c9b70e"
    },
    {
      "id": 639,
      "outputModuleId": 3,
      "outputId": 1,
      "inputModuleId": 160,
      "inputId": 2,
      "color": "#c9b70e"
    },
    {
      "id": 651,
      "outputModuleId": 161,
      "outputId": 0,
      "inputModuleId": 160,
      "inputId": 0,
      "color": "#c9b70e"
    },
    {
      "id": 648,
      "outputModuleId": 5,
      "outputId": 0,
      "inputModuleId": 161,
      "inputId": 2,
      "color": "#0c8e15"
    },
    {
      "id": 638,
      "outputModuleId": 160,
      "outputId": 0,
      "inputModuleId": 163,
      "inputId": 0,
      "color": "#0986ad"
    },
    {
      "id": 653,
      "outputModuleId": 163,
      "outputId": 0,
      "inputModuleId": 2,
      "inputId": 1,
      "color": "#c91847"
    },
    {
      "id": 654,
      "outputModuleId": 6,
      "outputId": 0,
      "inputModuleId": 163,
      "inputId": 2,
      "color": "#0986ad"
    },
    {
      "id": 656,
      "outputModuleId": 164,
      "outputId": 0,
      "inputModuleId": 2,
      "inputId": 5,
      "color": "#0c8e15"
    },
    {
      "id": 657,
      "outputModuleId": 161,
      "outputId": 1,
      "inputModuleId": 164,
      "inputId": 4,
      "color": "#c91847"
    },
    {
      "id": 664,
      "outputModuleId": 162,
      "outputId": 3,
      "inputModuleId": 165,
      "inputId": 4,
      "color": "#0c8e15"
    },
    {
      "id": 665,
      "outputModuleId": 165,
      "outputId": 0,
      "inputModuleId": 6,
      "inputId": 3,
      "color": "#c91847"
    },
    {
      "id": 666,
      "outputModuleId": 165,
      "outputId": 0,
      "inputModuleId": 163,
      "inputId": 3,
      "color": "#0986ad"
    }
  ]
}