{
  "version": "1.1.6",
  "modules": [
    {
      "id": 1,
      "plugin": "Core",
      "version": "1.1.6",
      "model": "AudioInterface",
      "params": [],
      "data": {
        "audio": {
          "driver": 6,
          "deviceName": "Headset (Redmi AirDots_R Hands-Free AG Audio)",
          "offset": 0,
          "maxChannels": 8,
          "sampleRate": 44100,
          "blockSize": 64
        }
      },
      "pos": [
        79,
        0
      ]
    },
    {
      "id": 2,
      "plugin": "Fundamental",
      "version": "1.4.0",
      "model": "VCMixer",
      "params": [
        {
          "id": 0,
          "value": 1.32599998
        },
        {
          "id": 1,
          "value": 1.41421354
        },
        {
          "id": 2,
          "value": 1.0
        },
        {
          "id": 3,
          "value": 1.41421354
        },
        {
          "id": 4,
          "value": 1.0
        }
      ],
      "leftModuleId": 11,
      "pos": [
        56,
        0
      ]
    },
    {
      "id": 4,
      "plugin": "Fundamental",
      "version": "1.4.0",
      "model": "VCF",
      "params": [
        {
          "id": 0,
          "value": 0.46124962
        },
        {
          "id": 1,
          "value": 0.5
        },
        {
          "id": 2,
          "value": 0.181500033
        },
        {
          "id": 3,
          "value": 0.86499995
        },
        {
          "id": 4,
          "value": 0.819000006
        }
      ],
      "leftModuleId": 14,
      "pos": [
        18,
        0
      ]
    },
    {
      "id": 5,
      "plugin": "Core",
      "version": "1.1.6",
      "model": "MIDIToCVInterface",
      "params": [],
      "rightModuleId": 14,
      "data": {
        "channels": 16,
        "polyMode": 0,
        "clockDivision": 24,
        "lastPitch": 8192,
        "lastMod": 0,
        "midi": {
          "driver": -11,
          "deviceName": "QWERTY keyboard (US)",
          "channel": -1
        }
      },
      "pos": [
        0,
        0
      ]
    },
    {
      "id": 6,
      "plugin": "Fundamental",
      "version": "1.4.0",
      "model": "ADSR",
      "params": [
        {
          "id": 0,
          "value": 0.0
        },
        {
          "id": 1,
          "value": 0.213
        },
        {
          "id": 2,
          "value": 0.503500044
        },
        {
          "id": 3,
          "value": 0.62800014
        }
      ],
      "pos": [
        27,
        0
      ]
    },
    {
      "id": 9,
      "plugin": "AudibleInstruments",
      "version": "1.5.0",
      "model": "Tides",
      "params": [
        {
          "id": 0,
          "value": 0.0
        },
        {
          "id": 1,
          "value": 0.0
        },
        {
          "id": 2,
          "value": -6.38400269
        },
        {
          "id": 3,
          "value": 5.40000057
        },
        {
          "id": 4,
          "value": -0.724000037
        },
        {
          "id": 5,
          "value": -0.913999975
        },
        {
          "id": 6,
          "value": -0.309999764
        }
      ],
      "data": {
        "mode": 1,
        "range": 1,
        "sheep": false
      },
      "pos": [
        15,
        1
      ]
    },
    {
      "id": 11,
      "plugin": "Bogaudio",
      "version": "1.1.37",
      "model": "Bogaudio-Analyzer",
      "params": [
        {
          "id": 0,
          "value": 0.0
        },
        {
          "id": 1,
          "value": 0.00150000001
        },
        {
          "id": 2,
          "value": 1.0
        },
        {
          "id": 3,
          "value": 0.0
        },
        {
          "id": 4,
          "value": 2.0
        },
        {
          "id": 5,
          "value": -0.080000028
        }
      ],
      "rightModuleId": 2,
      "data": {
        "frequency_plot": "log",
        "amplitude_plot": "decibels_80"
      },
      "pos": [
        36,
        0
      ]
    },
    {
      "id": 14,
      "plugin": "Bogaudio",
      "version": "1.1.37",
      "model": "Bogaudio-VCO",
      "params": [
        {
          "id": 0,
          "value": -0.999000311
        },
        {
          "id": 1,
          "value": 0.0
        },
        {
          "id": 2,
          "value": 0.0
        },
        {
          "id": 3,
          "value": 0.0570000224
        },
        {
          "id": 4,
          "value": 0.0
        },
        {
          "id": 5,
          "value": 1.0
        },
        {
          "id": 6,
          "value": 0.0
        }
      ],
      "leftModuleId": 5,
      "rightModuleId": 4,
      "data": {
        "poly_input": 0
      },
      "pos": [
        8,
        0
      ]
    },
    {
      "id": 18,
      "plugin": "AudibleInstruments",
      "version": "1.5.0",
      "model": "Tides",
      "params": [
        {
          "id": 0,
          "value": 0.0
        },
        {
          "id": 1,
          "value": 0.0
        },
        {
          "id": 2,
          "value": -13.6800165
        },
        {
          "id": 3,
          "value": 5.21999836
        },
        {
          "id": 4,
          "value": -0.963
        },
        {
          "id": 5,
          "value": -0.980000019
        },
        {
          "id": 6,
          "value": -0.18900001
        }
      ],
      "data": {
        "mode": 1,
        "range": 1,
        "sheep": false
      },
      "pos": [
        60,
        1
      ]
    },
    {
      "id": 26,
      "plugin": "Fundamental",
      "version": "1.4.0",
      "model": "VCA-1",
      "params": [
        {
          "id": 0,
          "value": 1.0
        },
        {
          "id": 1,
          "value": 1.0
        }
      ],
      "leftModuleId": 27,
      "pos": [
        39,
        1
      ]
    },
    {
      "id": 27,
      "plugin": "Fundamental",
      "version": "1.4.0",
      "model": "VCA-1",
      "params": [
        {
          "id": 0,
          "value": 1.0
        },
        {
          "id": 1,
          "value": 1.0
        }
      ],
      "rightModuleId": 26,
      "pos": [
        36,
        1
      ]
    }
  ],
  "cables": [
    {
      "id": 5,
      "outputModuleId": 5,
      "outputId": 1,
      "inputModuleId": 6,
      "inputId": 4,
      "color": "#c9b70e"
    },
    {
      "id": 29,
      "outputModuleId": 5,
      "outputId": 0,
      "inputModuleId": 14,
      "inputId": 0,
      "color": "#0c8e15"
    },
    {
      "id": 57,
      "outputModuleId": 2,
      "outputId": 0,
      "inputModuleId": 11,
      "inputId": 1,
      "color": "#0c8e15"
    },
    {
      "id": 59,
      "outputModuleId": 9,
      "outputId": 3,
      "inputModuleId": 14,
      "inputId": 3,
      "color": "#0986ad"
    },
    {
      "id": 94,
      "outputModuleId": 2,
      "outputId": 0,
      "inputModuleId": 1,
      "inputId": 0,
      "color": "#0986ad"
    },
    {
      "id": 104,
      "outputModuleId": 5,
      "outputId": 0,
      "inputModuleId": 18,
      "inputId": 5,
      "color": "#0c8e15"
    },
    {
      "id": 102,
      "outputModuleId": 6,
      "outputId": 0,
      "inputModuleId": 2,
      "inputId": 5,
      "color": "#0986ad"
    },
    {
      "id": 105,
      "outputModuleId": 6,
      "outputId": 0,
      "inputModuleId": 2,
      "inputId": 7,
      "color": "#c91847"
    },
    {
      "id": 106,
      "outputModuleId": 5,
      "outputId": 1,
      "inputModuleId": 14,
      "inputId": 1,
      "color": "#0986ad"
    },
    {
      "id": 107,
      "outputModuleId": 4,
      "outputId": 0,
      "inputModuleId": 27,
      "inputId": 1,
      "color": "#c9b70e"
    },
    {
      "id": 108,
      "outputModuleId": 4,
      "outputId": 1,
      "inputModuleId": 26,
      "inputId": 1,
      "color": "#0c8e15"
    },
    {
      "id": 109,
      "outputModuleId": 27,
      "outputId": 0,
      "inputModuleId": 2,
      "inputId": 1,
      "color": "#c91847"
    },
    {
      "id": 110,
      "outputModuleId": 26,
      "outputId": 0,
      "inputModuleId": 2,
      "inputId": 3,
      "color": "#0986ad"
    },
    {
      "id": 111,
      "outputModuleId": 18,
      "outputId": 3,
      "inputModuleId": 26,
      "inputId": 0,
      "color": "#c9b70e"
    },
    {
      "id": 112,
      "outputModuleId": 18,
      "outputId": 3,
      "inputModuleId": 27,
      "inputId": 0,
      "color": "#0c8e15"
    },
    {
      "id": 31,
      "outputModuleId": 14,
      "outputId": 1,
      "inputModuleId": 4,
      "inputId": 3,
      "color": "#0986ad"
    }
  ]
}