{
  "version": "1.1.6",
  "modules": [
    {
      "id": 1,
      "plugin": "Core",
      "version": "1.1.6",
      "model": "AudioInterface",
      "params": [],
      "leftModuleId": 2,
      "data": {
        "audio": {
          "driver": 6,
          "deviceName": "Headphones (Redmi AirDots_R Stereo)",
          "offset": 0,
          "maxChannels": 8,
          "sampleRate": 44100,
          "blockSize": 64
        }
      },
      "pos": [
        75,
        0
      ]
    },
    {
      "id": 2,
      "plugin": "Fundamental",
      "version": "1.4.0",
      "model": "VCMixer",
      "params": [
        {
          "id": 0,
          "value": 1.50699997
        },
        {
          "id": 1,
          "value": 1.22061729
        },
        {
          "id": 2,
          "value": 1.0
        },
        {
          "id": 3,
          "value": 1.0
        },
        {
          "id": 4,
          "value": 1.0
        }
      ],
      "leftModuleId": 6,
      "rightModuleId": 1,
      "pos": [
        65,
        0
      ]
    },
    {
      "id": 3,
      "plugin": "Fundamental",
      "version": "1.4.0",
      "model": "VCO",
      "params": [
        {
          "id": 0,
          "value": 1.0
        },
        {
          "id": 1,
          "value": 1.0
        },
        {
          "id": 2,
          "value": 36.1417313
        },
        {
          "id": 3,
          "value": 0.0
        },
        {
          "id": 4,
          "value": 0.399000049
        },
        {
          "id": 5,
          "value": 0.5
        },
        {
          "id": 6,
          "value": 0.0
        }
      ],
      "leftModuleId": 5,
      "rightModuleId": 4,
      "pos": [
        38,
        0
      ]
    },
    {
      "id": 4,
      "plugin": "Fundamental",
      "version": "1.4.0",
      "model": "VCF",
      "params": [
        {
          "id": 0,
          "value": 0.38524574
        },
        {
          "id": 1,
          "value": 0.5
        },
        {
          "id": 2,
          "value": 0.234000027
        },
        {
          "id": 3,
          "value": 1.0
        },
        {
          "id": 4,
          "value": 0.0
        }
      ],
      "leftModuleId": 3,
      "pos": [
        48,
        0
      ]
    },
    {
      "id": 5,
      "plugin": "Core",
      "version": "1.1.6",
      "model": "MIDIToCVInterface",
      "params": [],
      "leftModuleId": 11,
      "rightModuleId": 3,
      "data": {
        "channels": 1,
        "polyMode": 0,
        "clockDivision": 24,
        "lastPitch": 8192,
        "lastMod": 0,
        "midi": {
          "driver": -11,
          "deviceName": "QWERTY keyboard (US)",
          "channel": -1
        }
      },
      "pos": [
        30,
        0
      ]
    },
    {
      "id": 6,
      "plugin": "Fundamental",
      "version": "1.4.0",
      "model": "ADSR",
      "params": [
        {
          "id": 0,
          "value": 0.105000064
        },
        {
          "id": 1,
          "value": 0.497000307
        },
        {
          "id": 2,
          "value": 0.563500166
        },
        {
          "id": 3,
          "value": 0.81249994
        }
      ],
      "rightModuleId": 2,
      "pos": [
        57,
        0
      ]
    },
    {
      "id": 9,
      "plugin": "AudibleInstruments",
      "version": "1.5.0",
      "model": "Tides",
      "params": [
        {
          "id": 0,
          "value": 0.0
        },
        {
          "id": 1,
          "value": 0.0
        },
        {
          "id": 2,
          "value": 13.9842529
        },
        {
          "id": 3,
          "value": 5.40000057
        },
        {
          "id": 4,
          "value": -0.171999961
        },
        {
          "id": 5,
          "value": -0.692999959
        },
        {
          "id": 6,
          "value": 0.0180000961
        }
      ],
      "rightModuleId": 10,
      "data": {
        "mode": 1,
        "range": 1,
        "sheep": false
      },
      "pos": [
        33,
        1
      ]
    },
    {
      "id": 10,
      "plugin": "AS",
      "version": "1.0.4",
      "model": "QuadVCA",
      "params": [
        {
          "id": 0,
          "value": 0.816999912
        },
        {
          "id": 1,
          "value": 0.229000032
        },
        {
          "id": 2,
          "value": 0.5
        },
        {
          "id": 3,
          "value": 0.5
        },
        {
          "id": 4,
          "value": 1.0
        },
        {
          "id": 5,
          "value": 1.0
        },
        {
          "id": 6,
          "value": 1.0
        },
        {
          "id": 7,
          "value": 1.0
        }
      ],
      "leftModuleId": 9,
      "pos": [
        47,
        1
      ]
    },
    {
      "id": 11,
      "plugin": "Bogaudio",
      "version": "1.1.37",
      "model": "Bogaudio-Analyzer",
      "params": [
        {
          "id": 0,
          "value": 0.0
        },
        {
          "id": 1,
          "value": 0.00150000001
        },
        {
          "id": 2,
          "value": 3.0
        },
        {
          "id": 3,
          "value": 0.0
        },
        {
          "id": 4,
          "value": 2.0
        },
        {
          "id": 5,
          "value": 0.0
        }
      ],
      "leftModuleId": 13,
      "rightModuleId": 5,
      "data": {
        "frequency_plot": "log",
        "amplitude_plot": "decibels_80"
      },
      "pos": [
        10,
        0
      ]
    },
    {
      "id": 12,
      "plugin": "VultModulesFree",
      "version": "1.14",
      "model": "Punch",
      "params": [
        {
          "id": 0,
          "value": 0.76849997
        },
        {
          "id": 1,
          "value": 0.5
        },
        {
          "id": 2,
          "value": 0.0
        }
      ],
      "pos": [
        60,
        1
      ]
    },
    {
      "id": 13,
      "plugin": "Core",
      "version": "1.1.6",
      "model": "MIDI-Map",
      "params": [],
      "rightModuleId": 11,
      "data": {
        "maps": [
          {
            "cc": 0,
            "moduleId": 3,
            "paramId": 2
          },
          {
            "cc": 1,
            "moduleId": 9,
            "paramId": 2
          },
          {
            "cc": -1,
            "moduleId": -1,
            "paramId": 0
          }
        ],
        "midi": {
          "driver": 4,
          "deviceName": "MIDI function 0",
          "channel": -1
        }
      },
      "pos": [
        0,
        0
      ]
    }
  ],
  "cables": [
    {
      "id": 0,
      "outputModuleId": 5,
      "outputId": 0,
      "inputModuleId": 3,
      "inputId": 0,
      "color": "#c91847"
    },
    {
      "id": 2,
      "outputModuleId": 2,
      "outputId": 0,
      "inputModuleId": 1,
      "inputId": 0,
      "color": "#0986ad"
    },
    {
      "id": 3,
      "outputModuleId": 2,
      "outputId": 0,
      "inputModuleId": 1,
      "inputId": 1,
      "color": "#c9b70e"
    },
    {
      "id": 5,
      "outputModuleId": 5,
      "outputId": 1,
      "inputModuleId": 6,
      "inputId": 4,
      "color": "#c9b70e"
    },
    {
      "id": 9,
      "outputModuleId": 5,
      "outputId": 6,
      "inputModuleId": 6,
      "inputId": 5,
      "color": "#c91847"
    },
    {
      "id": 4,
      "outputModuleId": 6,
      "outputId": 0,
      "inputModuleId": 4,
      "inputId": 1,
      "color": "#c91847"
    },
    {
      "id": 19,
      "outputModuleId": 6,
      "outputId": 0,
      "inputModuleId": 2,
      "inputId": 5,
      "color": "#c91847"
    },
    {
      "id": 20,
      "outputModuleId": 12,
      "outputId": 0,
      "inputModuleId": 2,
      "inputId": 1,
      "color": "#c9b70e"
    },
    {
      "id": 23,
      "outputModuleId": 12,
      "outputId": 1,
      "inputModuleId": 2,
      "inputId": 2,
      "color": "#c9b70e"
    },
    {
      "id": 24,
      "outputModuleId": 6,
      "outputId": 0,
      "inputModuleId": 2,
      "inputId": 6,
      "color": "#0c8e15"
    },
    {
      "id": 25,
      "outputModuleId": 4,
      "outputId": 0,
      "inputModuleId": 12,
      "inputId": 0,
      "color": "#c91847"
    },
    {
      "id": 26,
      "outputModuleId": 4,
      "outputId": 0,
      "inputModuleId": 12,
      "inputId": 1,
      "color": "#0986ad"
    },
    {
      "id": 11,
      "outputModuleId": 10,
      "outputId": 0,
      "inputModuleId": 3,
      "inputId": 3,
      "color": "#0c8e15"
    },
    {
      "id": 12,
      "outputModuleId": 3,
      "outputId": 3,
      "inputModuleId": 11,
      "inputId": 0,
      "color": "#0986ad"
    },
    {
      "id": 1,
      "outputModuleId": 3,
      "outputId": 0,
      "inputModuleId": 4,
      "inputId": 3,
      "color": "#0c8e15"
    },
    {
      "id": 22,
      "outputModuleId": 5,
      "outputId": 3,
      "inputModuleId": 9,
      "inputId": 6,
      "color": "#c91847"
    },
    {
      "id": 14,
      "outputModuleId": 5,
      "outputId": 0,
      "inputModuleId": 9,
      "inputId": 5,
      "color": "#0c8e15"
    },
    {
      "id": 10,
      "outputModuleId": 9,
      "outputId": 2,
      "inputModuleId": 10,
      "inputId": 1,
      "color": "#c9b70e"
    },
    {
      "id": 6,
      "outputModuleId": 6,
      "outputId": 0,
      "inputModuleId": 10,
      "inputId": 0,
      "color": "#0c8e15"
    },
    {
      "id": 27,
      "outputModuleId": 2,
      "outputId": 1,
      "inputModuleId": 11,
      "inputId": 1,
      "color": "#0986ad"
    },
    {
      "id": 28,
      "outputModuleId": 2,
      "outputId": 2,
      "inputModuleId": 11,
      "inputId": 2,
      "color": "#c9b70e"
    }
  ]
}