{
  "version": "1.1.6",
  "modules": [
    {
      "id": 1,
      "plugin": "Core",
      "version": "1.1.6",
      "model": "AudioInterface",
      "params": [],
      "leftModuleId": 2,
      "data": {
        "audio": {
          "driver": 7,
          "deviceName": "Yamaha Steinberg USB ASIO",
          "offset": 0,
          "maxChannels": 8,
          "sampleRate": 44100,
          "blockSize": 96
        }
      },
      "pos": [
        58,
        0
      ]
    },
    {
      "id": 2,
      "plugin": "Fundamental",
      "version": "1.4.0",
      "model": "VCMixer",
      "params": [
        {
          "id": 0,
          "value": 1.35433066
        },
        {
          "id": 1,
          "value": 0.661851883
        },
        {
          "id": 2,
          "value": 1.39158607
        },
        {
          "id": 3,
          "value": 1.0
        },
        {
          "id": 4,
          "value": 1.0
        }
      ],
      "leftModuleId": 81,
      "rightModuleId": 1,
      "pos": [
        48,
        0
      ]
    },
    {
      "id": 80,
      "plugin": "Bogaudio",
      "version": "1.1.37",
      "model": "Bogaudio-VCF",
      "params": [
        {
          "id": 0,
          "value": 0.22047244
        },
        {
          "id": 1,
          "value": 1.0
        },
        {
          "id": 2,
          "value": 0.985000014
        },
        {
          "id": 3,
          "value": 0.78099972
        },
        {
          "id": 4,
          "value": 2.0
        },
        {
          "id": 5,
          "value": 0.426232815
        }
      ],
      "data": {
        "bandwidthMode": "pitched"
      },
      "pos": [
        0,
        0
      ]
    },
    {
      "id": 81,
      "plugin": "Bogaudio",
      "version": "1.1.37",
      "model": "Bogaudio-Analyzer",
      "params": [
        {
          "id": 0,
          "value": 0.0
        },
        {
          "id": 1,
          "value": 0.762500107
        },
        {
          "id": 2,
          "value": 1.0
        },
        {
          "id": 3,
          "value": 0.0
        },
        {
          "id": 4,
          "value": 2.0
        },
        {
          "id": 5,
          "value": -0.606000185
        }
      ],
      "leftModuleId": 83,
      "rightModuleId": 2,
      "data": {
        "frequency_plot": "log",
        "amplitude_plot": "decibels_80"
      },
      "pos": [
        28,
        0
      ]
    },
    {
      "id": 83,
      "plugin": "AudibleInstruments",
      "version": "1.5.0",
      "model": "Tides",
      "params": [
        {
          "id": 0,
          "value": 0.0
        },
        {
          "id": 1,
          "value": 0.0
        },
        {
          "id": 2,
          "value": -9.44882202
        },
        {
          "id": 3,
          "value": 9.40800095
        },
        {
          "id": 4,
          "value": -0.658000052
        },
        {
          "id": 5,
          "value": -0.51300025
        },
        {
          "id": 6,
          "value": -0.533999801
        }
      ],
      "rightModuleId": 81,
      "data": {
        "mode": 1,
        "range": 1,
        "sheep": false
      },
      "pos": [
        14,
        0
      ]
    },
    {
      "id": 84,
      "plugin": "Core",
      "version": "1.1.6",
      "model": "MIDI-Map",
      "params": [],
      "data": {
        "maps": [
          {
            "cc": 11,
            "moduleId": 80,
            "paramId": 0
          },
          {
            "cc": 12,
            "moduleId": 83,
            "paramId": 2
          },
          {
            "cc": 9,
            "moduleId": 2,
            "paramId": 0
          },
          {
            "cc": 13,
            "moduleId": 89,
            "paramId": 2
          },
          {
            "cc": -1,
            "moduleId": -1,
            "paramId": 0
          }
        ],
        "midi": {
          "driver": 4,
          "deviceName": "X-TOUCH MINI 3",
          "channel": -1
        }
      },
      "pos": [
        12,
        1
      ]
    },
    {
      "id": 88,
      "plugin": "Fundamental",
      "version": "1.4.0",
      "model": "VCA-1",
      "params": [
        {
          "id": 0,
          "value": 0.885999978
        },
        {
          "id": 1,
          "value": 1.0
        }
      ],
      "pos": [
        45,
        1
      ]
    },
    {
      "id": 89,
      "plugin": "AudibleInstruments",
      "version": "1.5.0",
      "model": "Tides",
      "params": [
        {
          "id": 0,
          "value": 0.0
        },
        {
          "id": 1,
          "value": 0.0
        },
        {
          "id": 2,
          "value": -16.2519684
        },
        {
          "id": 3,
          "value": 0.0
        },
        {
          "id": 4,
          "value": -0.731000066
        },
        {
          "id": 5,
          "value": 0.00500008138
        },
        {
          "id": 6,
          "value": -0.430999964
        }
      ],
      "data": {
        "mode": 1,
        "range": 1,
        "sheep": false
      },
      "pos": [
        30,
        1
      ]
    }
  ],
  "cables": [
    {
      "id": 292,
      "outputModuleId": 2,
      "outputId": 0,
      "inputModuleId": 1,
      "inputId": 0,
      "color": "#0986ad"
    },
    {
      "id": 293,
      "outputModuleId": 2,
      "outputId": 0,
      "inputModuleId": 1,
      "inputId": 1,
      "color": "#c9b70e"
    },
    {
      "id": 309,
      "outputModuleId": 2,
      "outputId": 2,
      "inputModuleId": 81,
      "inputId": 1,
      "color": "#0c8e15"
    },
    {
      "id": 311,
      "outputModuleId": 1,
      "outputId": 0,
      "inputModuleId": 2,
      "inputId": 1,
      "color": "#c91847"
    },
    {
      "id": 324,
      "outputModuleId": 1,
      "outputId": 0,
      "inputModuleId": 80,
      "inputId": 3,
      "color": "#c9b70e"
    },
    {
      "id": 307,
      "outputModuleId": 80,
      "outputId": 0,
      "inputModuleId": 88,
      "inputId": 1,
      "color": "#c91847"
    },
    {
      "id": 325,
      "outputModuleId": 88,
      "outputId": 0,
      "inputModuleId": 2,
      "inputId": 2,
      "color": "#0c8e15"
    },
    {
      "id": 314,
      "outputModuleId": 2,
      "outputId": 1,
      "inputModuleId": 81,
      "inputId": 0,
      "color": "#0c8e15"
    },
    {
      "id": 329,
      "outputModuleId": 83,
      "outputId": 3,
      "inputModuleId": 80,
      "inputId": 2,
      "color": "#0c8e15"
    },
    {
      "id": 328,
      "outputModuleId": 83,
      "outputId": 3,
      "inputModuleId": 80,
      "inputId": 1,
      "color": "#c9b70e"
    },
    {
      "id": 336,
      "outputModuleId": 89,
      "outputId": 2,
      "inputModuleId": 88,
      "inputId": 0,
      "color": "#c9b70e"
    }
  ]
}