{
  "version": "1.1.6",
  "modules": [
    {
      "id": 1,
      "plugin": "Core",
      "version": "1.1.6",
      "model": "AudioInterface",
      "params": [],
      "leftModuleId": 2,
      "data": {
        "audio": {
          "driver": 6,
          "deviceName": "Speakers (Realtek(R) Audio)",
          "offset": 0,
          "maxChannels": 8,
          "sampleRate": 44100,
          "blockSize": 64
        }
      },
      "pos": [
        55,
        1
      ]
    },
    {
      "id": 2,
      "plugin": "Fundamental",
      "version": "1.4.0",
      "model": "VCMixer",
      "params": [
        {
          "id": 0,
          "value": 1.0
        },
        {
          "id": 1,
          "value": 1.0
        },
        {
          "id": 2,
          "value": 1.0
        },
        {
          "id": 3,
          "value": 1.0
        },
        {
          "id": 4,
          "value": 1.0
        }
      ],
      "leftModuleId": 124,
      "rightModuleId": 1,
      "pos": [
        45,
        1
      ]
    },
    {
      "id": 5,
      "plugin": "Core",
      "version": "1.1.6",
      "model": "MIDIToCVInterface",
      "params": [],
      "data": {
        "channels": 1,
        "polyMode": 0,
        "clockDivision": 24,
        "lastPitch": 8192,
        "lastMod": 58,
        "midi": {
          "driver": 4,
          "deviceName": "MIDI function 0",
          "channel": -1
        }
      },
      "pos": [
        0,
        0
      ]
    },
    {
      "id": 6,
      "plugin": "Fundamental",
      "version": "1.4.0",
      "model": "ADSR",
      "params": [
        {
          "id": 0,
          "value": 0.258000046
        },
        {
          "id": 1,
          "value": 0.743000448
        },
        {
          "id": 2,
          "value": 0.5
        },
        {
          "id": 3,
          "value": 0.576500058
        }
      ],
      "rightModuleId": 124,
      "pos": [
        17,
        1
      ]
    },
    {
      "id": 124,
      "plugin": "Bogaudio",
      "version": "1.1.37",
      "model": "Bogaudio-Analyzer",
      "params": [
        {
          "id": 0,
          "value": 0.0
        },
        {
          "id": 1,
          "value": 0.148500055
        },
        {
          "id": 2,
          "value": 1.0
        },
        {
          "id": 3,
          "value": 0.0
        },
        {
          "id": 4,
          "value": 2.0
        },
        {
          "id": 5,
          "value": -0.0339999646
        }
      ],
      "leftModuleId": 6,
      "rightModuleId": 2,
      "data": {
        "frequency_plot": "log",
        "amplitude_plot": "decibels_80"
      },
      "pos": [
        25,
        1
      ]
    },
    {
      "id": 126,
      "plugin": "Fundamental",
      "version": "1.4.0",
      "model": "LFO",
      "params": [
        {
          "id": 0,
          "value": 0.0
        },
        {
          "id": 1,
          "value": 1.0
        },
        {
          "id": 2,
          "value": 0.220472336
        },
        {
          "id": 3,
          "value": 0.0
        },
        {
          "id": 4,
          "value": 0.0
        },
        {
          "id": 5,
          "value": 0.520089924
        },
        {
          "id": 6,
          "value": 0.0
        }
      ],
      "rightModuleId": 127,
      "pos": [
        53,
        0
      ]
    },
    {
      "id": 127,
      "plugin": "Fundamental",
      "version": "1.4.0",
      "model": "VCA-1",
      "params": [
        {
          "id": 0,
          "value": 1.0
        },
        {
          "id": 1,
          "value": 1.0
        }
      ],
      "leftModuleId": 126,
      "pos": [
        63,
        0
      ]
    },
    {
      "id": 129,
      "plugin": "Fundamental",
      "version": "1.4.0",
      "model": "VCO",
      "params": [
        {
          "id": 0,
          "value": 1.0
        },
        {
          "id": 1,
          "value": 1.0
        },
        {
          "id": 2,
          "value": -14.9999914
        },
        {
          "id": 3,
          "value": 0.0
        },
        {
          "id": 4,
          "value": 0.0
        },
        {
          "id": 5,
          "value": 0.5
        },
        {
          "id": 6,
          "value": 0.0
        }
      ],
      "pos": [
        9,
        0
      ]
    },
    {
      "id": 131,
      "plugin": "Fundamental",
      "version": "1.4.0",
      "model": "LFO",
      "params": [
        {
          "id": 0,
          "value": 0.0
        },
        {
          "id": 1,
          "value": 0.0
        },
        {
          "id": 2,
          "value": 0.220472336
        },
        {
          "id": 3,
          "value": 0.0
        },
        {
          "id": 4,
          "value": 0.0
        },
        {
          "id": 5,
          "value": 0.520089924
        },
        {
          "id": 6,
          "value": 0.0
        }
      ],
      "rightModuleId": 132,
      "pos": [
        38,
        0
      ]
    },
    {
      "id": 132,
      "plugin": "Fundamental",
      "version": "1.4.0",
      "model": "VCA-1",
      "params": [
        {
          "id": 0,
          "value": 1.0
        },
        {
          "id": 1,
          "value": 1.0
        }
      ],
      "leftModuleId": 131,
      "pos": [
        48,
        0
      ]
    },
    {
      "id": 133,
      "plugin": "Core",
      "version": "1.1.6",
      "model": "MIDI-Map",
      "params": [],
      "data": {
        "maps": [
          {
            "cc": 1,
            "moduleId": 126,
            "paramId": 2
          },
          {
            "cc": 1,
            "moduleId": 131,
            "paramId": 2
          },
          {
            "cc": -1,
            "moduleId": -1,
            "paramId": 0
          }
        ],
        "midi": {
          "driver": 4,
          "deviceName": "MIDI function 0",
          "channel": -1
        }
      },
      "pos": [
        70,
        0
      ]
    }
  ],
  "cables": [
    {
      "id": 533,
      "outputModuleId": 2,
      "outputId": 0,
      "inputModuleId": 1,
      "inputId": 0,
      "color": "#0986ad"
    },
    {
      "id": 534,
      "outputModuleId": 2,
      "outputId": 0,
      "inputModuleId": 1,
      "inputId": 1,
      "color": "#c9b70e"
    },
    {
      "id": 536,
      "outputModuleId": 5,
      "outputId": 1,
      "inputModuleId": 6,
      "inputId": 4,
      "color": "#c9b70e"
    },
    {
      "id": 540,
      "outputModuleId": 5,
      "outputId": 6,
      "inputModuleId": 6,
      "inputId": 5,
      "color": "#c91847"
    },
    {
      "id": 550,
      "outputModuleId": 124,
      "outputId": 0,
      "inputModuleId": 2,
      "inputId": 1,
      "color": "#0c8e15"
    },
    {
      "id": 555,
      "outputModuleId": 126,
      "outputId": 0,
      "inputModuleId": 127,
      "inputId": 1,
      "color": "#c91847"
    },
    {
      "id": 557,
      "outputModuleId": 5,
      "outputId": 1,
      "inputModuleId": 126,
      "inputId": 2,
      "color": "#c9b70e"
    },
    {
      "id": 560,
      "outputModuleId": 5,
      "outputId": 0,
      "inputModuleId": 129,
      "inputId": 0,
      "color": "#0986ad"
    },
    {
      "id": 561,
      "outputModuleId": 124,
      "outputId": 1,
      "inputModuleId": 2,
      "inputId": 2,
      "color": "#c9b70e"
    },
    {
      "id": 537,
      "outputModuleId": 6,
      "outputId": 0,
      "inputModuleId": 2,
      "inputId": 0,
      "color": "#0c8e15"
    },
    {
      "id": 563,
      "outputModuleId": 129,
      "outputId": 0,
      "inputModuleId": 124,
      "inputId": 0,
      "color": "#c91847"
    },
    {
      "id": 564,
      "outputModuleId": 129,
      "outputId": 2,
      "inputModuleId": 124,
      "inputId": 1,
      "color": "#0986ad"
    },
    {
      "id": 565,
      "outputModuleId": 127,
      "outputId": 0,
      "inputModuleId": 2,
      "inputId": 5,
      "color": "#c9b70e"
    },
    {
      "id": 566,
      "outputModuleId": 131,
      "outputId": 0,
      "inputModuleId": 132,
      "inputId": 1,
      "color": "#0c8e15"
    },
    {
      "id": 567,
      "outputModuleId": 5,
      "outputId": 1,
      "inputModuleId": 131,
      "inputId": 2,
      "color": "#c91847"
    },
    {
      "id": 568,
      "outputModuleId": 132,
      "outputId": 0,
      "inputModuleId": 2,
      "inputId": 6,
      "color": "#0986ad"
    },
    {
      "id": 569,
      "outputModuleId": 2,
      "outputId": 0,
      "inputModuleId": 124,
      "inputId": 2,
      "color": "#c9b70e"
    }
  ]
}